<svg width="186" height="28" viewBox="0 0 186 28" fill="none" xmlns="http://www.w3.org/2000/svg">
<g clip-path="url(#clip0_9071_8687)">
<path d="M14 0C13.0692 0 12.2215 0.477968 10.5261 1.43391L4.59387 4.77882C2.8985 5.73476 2.05082 6.21272 1.58541 7C1.12 7.78728 1.12 8.7432 1.12 10.6551V17.3449C1.12 18.2977 2.08614 18.8892 2.95629 18.5009C5.4992 17.3661 8.09289 16.3256 10.7323 15.3831C10.9241 15.3462 11.1231 15.3731 11.2974 15.4596C11.4717 15.5461 11.6113 15.6871 11.694 15.8603C11.7767 16.0334 11.7977 16.2285 11.7536 16.4147C11.7095 16.6008 11.6029 16.7672 11.4508 16.8873C9.07418 18.2904 6.75813 19.7803 4.50716 21.3528C3.83115 21.8251 3.87556 22.8161 4.59387 23.2212L10.5261 26.5661C12.2215 27.522 13.0692 28 14 28C14.9308 28 15.7785 27.522 17.4739 26.5661L23.4061 23.2212C25.1015 22.2652 25.9492 21.7873 26.4146 21C26.88 20.2127 26.88 19.2568 26.88 17.3449V10.6551C26.88 8.7432 26.88 7.78728 26.4146 7C25.9492 6.21272 25.1015 5.73476 23.4061 4.77882L17.4739 1.43391C15.7785 0.477968 14.9308 0 14 0Z" fill="#0065F5"/>
<path d="M18.6923 6.80345C19.0616 5.82807 19.2462 5.34037 19.5697 5.32122C19.5898 5.32001 19.6099 5.32001 19.63 5.32122C19.9535 5.34037 20.1381 5.82807 20.5074 6.80345L20.9777 8.04584C21.0516 8.24106 21.0885 8.33864 21.1601 8.41121C21.165 8.41622 21.1701 8.42115 21.1753 8.42594C21.2501 8.49544 21.3506 8.5313 21.5517 8.60301L22.8317 9.05949C23.8367 9.41789 24.3392 9.5971 24.3589 9.911C24.3602 9.93052 24.3602 9.95009 24.3589 9.96964C24.3392 10.2835 23.8367 10.4627 22.8317 10.8211L21.5517 11.2776C21.3506 11.3493 21.2501 11.3852 21.1753 11.4547C21.1701 11.4595 21.165 11.4644 21.1601 11.4694C21.0885 11.542 21.0516 11.6396 20.9777 11.8348L20.5074 13.0772C20.1381 14.0526 19.9535 14.5403 19.63 14.5594C19.6099 14.5606 19.5898 14.5606 19.5697 14.5594C19.2462 14.5403 19.0616 14.0526 18.6923 13.0772L18.222 11.8348C18.1481 11.6396 18.1112 11.542 18.0396 11.4694C18.0346 11.4644 18.0296 11.4595 18.0244 11.4547C17.9496 11.3852 17.8491 11.3493 17.648 11.2776L16.3679 10.8211C15.363 10.4627 14.8605 10.2835 14.8408 9.96964C14.8395 9.95009 14.8395 9.93052 14.8408 9.911C14.8605 9.5971 15.363 9.41789 16.3679 9.05949L17.648 8.60301C17.8491 8.5313 17.9496 8.49544 18.0244 8.42594C18.0296 8.42115 18.0346 8.41622 18.0396 8.41121C18.1112 8.33864 18.1481 8.24106 18.222 8.04584L18.6923 6.80345Z" fill="white"/>
<path d="M37.205 23.8005C37.0697 23.8005 36.96 23.6908 36.96 23.5555V7.99655C36.96 7.86123 37.0697 7.75155 37.205 7.75155H39.6256C39.7608 7.75155 39.8706 7.86123 39.8706 7.99655V9.13506H40.2928C40.5591 8.68927 40.9735 8.29727 41.5368 7.95906C42.1002 7.6055 42.906 7.42871 43.9546 7.42871C44.8935 7.42871 45.7618 7.65929 46.5598 8.12048C47.358 8.5663 47.9995 9.22729 48.4845 10.1036C48.9697 10.9798 49.2122 12.0405 49.2122 13.2857V13.6546C49.2122 14.8998 48.9697 15.9605 48.4845 16.8367C47.9995 17.7129 47.358 18.3817 46.5598 18.8428C45.7618 19.2886 44.8935 19.5116 43.9546 19.5116C43.2504 19.5116 42.6557 19.427 42.1708 19.2579C41.7012 19.1042 41.3179 18.9043 41.0205 18.6584C40.7388 18.397 40.512 18.1357 40.3398 17.8744H39.9173V23.5555C39.9173 23.6908 39.8078 23.8005 39.6723 23.8005H37.205ZM43.0626 16.9751C43.9857 16.9751 44.7448 16.6907 45.3392 16.1219C45.9496 15.5377 46.2548 14.6922 46.2548 13.5854V13.3548C46.2548 12.248 45.9496 11.4102 45.3392 10.8414C44.7291 10.2573 43.97 9.96517 43.0626 9.96517C42.1551 9.96517 41.396 10.2573 40.7859 10.8414C40.1755 11.4102 39.8706 12.248 39.8706 13.3548V13.5854C39.8706 14.6922 40.1755 15.5377 40.7859 16.1219C41.396 16.6907 42.1551 16.9751 43.0626 16.9751Z" fill="#02061E"/>
<path d="M55.5425 19.5106C54.7132 19.5106 53.9698 19.3722 53.3126 19.0955C52.6554 18.8034 52.1313 18.3884 51.7401 17.8503C51.3644 17.2969 51.1768 16.6282 51.1768 15.8442C51.1768 15.0602 51.3644 14.4069 51.7401 13.8842C52.1313 13.3462 52.6633 12.9465 53.3361 12.6852C54.0246 12.4084 54.807 12.2701 55.6834 12.2701H58.8754V11.6245C58.8754 11.0864 58.7032 10.6483 58.359 10.3101C58.0149 9.95653 57.4672 9.77973 56.716 9.77973C55.9807 9.77973 55.433 9.94883 55.073 10.287C54.7762 10.5533 54.5645 10.8876 54.4379 11.2899C54.394 11.4294 54.2472 11.5151 54.1084 11.4693L51.877 10.7322C51.7491 10.69 51.6788 10.5524 51.7267 10.4266C51.9146 9.93222 52.185 9.47831 52.5381 9.06492C52.9606 8.57299 53.5162 8.18099 54.2047 7.88892C54.9086 7.58145 55.7615 7.42773 56.763 7.42773C58.2963 7.42773 59.5093 7.80436 60.4011 8.55762C61.2929 9.31087 61.7389 10.4023 61.7389 11.832V16.0978C61.7389 16.559 61.9582 16.7896 62.3961 16.7896H63.0899C63.2254 16.7896 63.3349 16.8993 63.3349 17.0346V18.9427C63.3349 19.0781 63.2254 19.1877 63.0899 19.1877H61.3634C60.7844 19.1877 60.3073 19.0494 59.9315 18.7727C59.556 18.496 59.3684 18.127 59.3684 17.6659V17.6428H58.9224C58.8597 17.8273 58.7188 18.0732 58.4999 18.3807C58.2809 18.6728 57.9365 18.9341 57.4672 19.1647C56.9977 19.3953 56.3562 19.5106 55.5425 19.5106ZM56.0588 17.1586C56.8882 17.1586 57.561 16.9357 58.0774 16.4899C58.6094 16.0287 58.8754 15.4215 58.8754 14.6682V14.4376H55.8945C55.3468 14.4376 54.9164 14.5529 54.6037 14.7835C54.2906 15.0141 54.1341 15.3369 54.1341 15.752C54.1341 16.167 54.2985 16.5052 54.6269 16.7666C54.9556 17.0279 55.433 17.1586 56.0588 17.1586Z" fill="#02061E"/>
<path d="M66.6891 23.7999C66.5536 23.7999 66.4441 23.6902 66.4441 23.5549V21.5084C66.4441 21.3731 66.5536 21.2634 66.6891 21.2634H72.7814C73.2196 21.2634 73.4385 21.0329 73.4385 20.5717V17.6893H73.016C72.8908 17.9506 72.6954 18.212 72.4294 18.4733C72.1634 18.7346 71.8033 18.9499 71.3497 19.119C70.8958 19.2881 70.3168 19.3726 69.6126 19.3726C68.7051 19.3726 67.9071 19.1728 67.2186 18.7731C66.5458 18.358 66.0216 17.7892 65.6458 17.0667C65.2704 16.3442 65.0828 15.5141 65.0828 14.5764V7.99598C65.0828 7.86065 65.1922 7.75098 65.3278 7.75098H67.7951C67.9304 7.75098 68.0401 7.86065 68.0401 7.99598V14.3458C68.0401 15.2066 68.2512 15.8523 68.6738 16.2827C69.112 16.7132 69.7299 16.9284 70.5282 16.9284C71.4357 16.9284 72.1399 16.6363 72.6405 16.0521C73.1412 15.4526 73.3918 14.6225 73.3918 13.5618V7.99598C73.3918 7.86065 73.5012 7.75098 73.6368 7.75098H76.1041C76.2394 7.75098 76.3491 7.86065 76.3491 7.99598V21.2173C76.3491 22.0013 76.1145 22.6239 75.6449 23.0851C75.1754 23.5616 74.5496 23.7999 73.7672 23.7999H66.6891Z" fill="#02061E"/>
<path d="M85.1085 19.5116C83.9818 19.5116 82.957 19.2809 82.0338 18.8198C81.1261 18.3586 80.4065 17.6899 79.8745 16.8137C79.3422 15.9374 79.0762 14.8767 79.0762 13.6316V13.3087C79.0762 12.0636 79.3422 11.0028 79.8745 10.1266C80.4065 9.25036 81.1261 8.58167 82.0338 8.12048C82.957 7.65929 83.9818 7.42871 85.1085 7.42871C86.2195 7.42871 87.1741 7.62087 87.9721 8.00517C88.7701 8.3895 89.4115 8.91985 89.8968 9.59625C90.3507 10.1956 90.6631 10.8707 90.8342 11.6216C90.8639 11.7514 90.7785 11.8778 90.6483 11.905L88.2767 12.4016C88.1375 12.4307 88.0037 12.3354 87.9746 12.1962C87.8998 11.8374 87.7738 11.5088 87.5966 11.2104C87.3773 10.8414 87.0646 10.5493 86.6577 10.3341C86.2666 10.1189 85.7735 10.0113 85.1791 10.0113C84.5843 10.0113 84.0445 10.142 83.5593 10.4033C83.09 10.6493 82.7145 11.0259 82.4328 11.5332C82.1668 12.0251 82.0338 12.6323 82.0338 13.3548V13.5854C82.0338 14.3079 82.1668 14.9228 82.4328 15.4301C82.7145 15.9221 83.09 16.2987 83.5593 16.56C84.0445 16.806 84.5843 16.9289 85.1791 16.9289C86.0709 16.9289 86.7437 16.706 87.1976 16.2602C87.6114 15.8535 87.8917 15.3391 88.0379 14.7171C88.0703 14.5796 88.2056 14.4888 88.3431 14.5209L90.7107 15.0738C90.844 15.1049 90.9263 15.2392 90.888 15.3705C90.6783 16.0922 90.3479 16.7577 89.8968 17.3671C89.4115 18.0281 88.7701 18.5508 87.9721 18.9351C87.1741 19.3194 86.2195 19.5116 85.1085 19.5116Z" fill="#02061E"/>
<path d="M93.6376 19.1884C93.5023 19.1884 93.3926 19.0787 93.3926 18.9434V7.99622C93.3926 7.8609 93.5023 7.75122 93.6376 7.75122H96.0582C96.1934 7.75122 96.3032 7.8609 96.3032 7.99622V9.0425H96.7254C96.8976 8.58134 97.1793 8.24313 97.5705 8.02792C97.9773 7.81271 98.4469 7.70508 98.9789 7.70508H100.142C100.278 7.70508 100.387 7.81478 100.387 7.95008V10.0427C100.387 10.178 100.278 10.2877 100.142 10.2877H98.9318C98.1809 10.2877 97.5626 10.4875 97.0777 10.8872C96.5924 11.2715 96.3499 11.8711 96.3499 12.6858V18.9434C96.3499 19.0787 96.2402 19.1884 96.1049 19.1884H93.6376Z" fill="#02061E"/>
<path d="M107.592 19.5116C106.434 19.5116 105.409 19.2733 104.517 18.7967C103.641 18.3048 102.952 17.6207 102.451 16.7445C101.966 15.8529 101.724 14.8076 101.724 13.6085V13.3318C101.724 12.1327 101.966 11.0951 102.451 10.2188C102.936 9.32722 103.617 8.64315 104.493 8.16659C105.37 7.67466 106.386 7.42871 107.545 7.42871C108.687 7.42871 109.68 7.68236 110.525 8.18967C111.37 8.68157 112.028 9.37334 112.497 10.2649C112.966 11.1412 113.201 12.1635 113.201 13.3318V14.0783C113.201 14.2136 113.092 14.3233 112.956 14.3233H104.728C104.759 15.1073 105.056 15.7453 105.62 16.2372C106.183 16.7291 106.872 16.9751 107.685 16.9751C108.515 16.9751 109.125 16.7983 109.516 16.4447C109.838 16.1537 110.096 15.8367 110.291 15.4936C110.36 15.3731 110.51 15.3213 110.634 15.3848L112.602 16.3988C112.725 16.4619 112.771 16.6137 112.699 16.731C112.489 17.0708 112.211 17.4365 111.863 17.8282C111.456 18.2894 110.909 18.6891 110.22 19.0273C109.532 19.3501 108.656 19.5116 107.592 19.5116ZM104.752 12.1558H110.197C110.134 11.4948 109.86 10.9644 109.375 10.5647C108.906 10.165 108.288 9.96517 107.521 9.96517C106.723 9.96517 106.089 10.165 105.62 10.5647C105.151 10.9644 104.861 11.4948 104.752 12.1558Z" fill="#02061E"/>
<path d="M120.669 19.5106C119.151 19.5106 117.907 19.1877 116.937 18.5421C116.027 17.9369 115.455 17.0885 115.219 15.9969C115.192 15.8721 115.272 15.7508 115.395 15.7194L117.65 15.1466C117.786 15.1121 117.922 15.1983 117.957 15.3336C118.068 15.7542 118.229 16.0934 118.439 16.3515C118.705 16.6589 119.026 16.8819 119.401 17.0202C119.792 17.1432 120.215 17.2047 120.669 17.2047C121.357 17.2047 121.866 17.0894 122.194 16.8588C122.523 16.6128 122.687 16.3131 122.687 15.9595C122.687 15.6059 122.531 15.3369 122.218 15.1524C121.905 14.9526 121.404 14.7912 120.716 14.6682L120.058 14.5529C119.245 14.3992 118.502 14.1917 117.829 13.9303C117.156 13.6536 116.616 13.277 116.209 12.8004C115.802 12.3239 115.599 11.709 115.599 10.9557C115.599 9.81818 116.021 8.94962 116.866 8.35008C117.711 7.7352 118.822 7.42773 120.199 7.42773C121.498 7.42773 122.578 7.71213 123.438 8.28092C124.226 8.80158 124.765 9.47036 125.054 10.2873C125.099 10.4137 125.025 10.5488 124.897 10.5876L122.637 11.2708C122.5 11.3122 122.358 11.2271 122.315 11.0903C122.174 10.64 121.939 10.3107 121.608 10.1026C121.232 9.85659 120.763 9.73362 120.199 9.73362C119.636 9.73362 119.206 9.83355 118.908 10.0334C118.611 10.2179 118.462 10.4792 118.462 10.8174C118.462 11.1863 118.619 11.463 118.932 11.6475C119.245 11.8166 119.667 11.9473 120.199 12.0395L120.857 12.1548C121.733 12.3085 122.523 12.5161 123.227 12.7774C123.947 13.0233 124.51 13.3846 124.917 13.8612C125.34 14.3223 125.551 14.9526 125.551 15.752C125.551 16.951 125.105 17.8811 124.213 18.5421C123.337 19.1877 122.155 19.5106 120.669 19.5106Z" fill="#02061E"/>
<path d="M132.372 19.1884C131.605 19.1884 130.98 18.9578 130.494 18.4967C130.025 18.0201 129.79 17.3898 129.79 16.6058V10.1494H127.125C126.989 10.1494 126.88 10.0397 126.88 9.90438V7.99627C126.88 7.86094 126.989 7.75127 127.125 7.75127H129.79V4.4452C129.79 4.3099 129.9 4.2002 130.035 4.2002H132.503C132.638 4.2002 132.748 4.3099 132.748 4.4452V7.75127H135.695C135.83 7.75127 135.94 7.86094 135.94 7.99627V9.90438C135.94 10.0397 135.83 10.1494 135.695 10.1494H132.748V16.0985C132.748 16.5597 132.967 16.7903 133.405 16.7903H135.413C135.548 16.7903 135.658 16.9 135.658 17.0353V18.9434C135.658 19.0788 135.548 19.1884 135.413 19.1884H132.372Z" fill="#02061E"/>
<path d="M146 6.75C146 2.88401 149.134 -0.25 153 -0.25H171C174.866 -0.25 178 2.88401 178 6.75C178 10.616 174.866 13.75 171 13.75H153C149.134 13.75 146 10.616 146 6.75Z" fill="#E5F0FE"/>
<path d="M152.793 9.75V3.20455H155.081C155.537 3.20455 155.913 3.28338 156.209 3.44105C156.505 3.59659 156.726 3.80646 156.871 4.07067C157.016 4.33274 157.088 4.62358 157.088 4.94318C157.088 5.22443 157.038 5.45668 156.938 5.63991C156.84 5.82315 156.71 5.96804 156.548 6.07457C156.388 6.18111 156.214 6.25994 156.027 6.31108V6.375C156.227 6.38778 156.429 6.4581 156.631 6.58594C156.833 6.71378 157.003 6.89702 157.139 7.13565C157.276 7.37429 157.344 7.66619 157.344 8.01136C157.344 8.33949 157.269 8.63459 157.12 8.89666C156.971 9.15874 156.735 9.36648 156.414 9.51989C156.092 9.6733 155.673 9.75 155.158 9.75H152.793ZM153.585 9.04688H155.158C155.675 9.04688 156.043 8.94673 156.26 8.74645C156.48 8.54403 156.589 8.29901 156.589 8.01136C156.589 7.78977 156.533 7.58523 156.42 7.39773C156.307 7.2081 156.146 7.05682 155.938 6.94389C155.729 6.82884 155.482 6.77131 155.196 6.77131H153.585V9.04688ZM153.585 6.08097H155.055C155.294 6.08097 155.509 6.03409 155.701 5.94034C155.895 5.84659 156.048 5.71449 156.161 5.54403C156.276 5.37358 156.334 5.1733 156.334 4.94318C156.334 4.65554 156.234 4.41158 156.033 4.21129C155.833 4.00888 155.516 3.90767 155.081 3.90767H153.585V6.08097ZM160.602 9.85227C160.129 9.85227 159.721 9.74787 159.378 9.53906C159.037 9.32812 158.774 9.03409 158.589 8.65696C158.405 8.2777 158.314 7.83665 158.314 7.33381C158.314 6.83097 158.405 6.38778 158.589 6.00426C158.774 5.61861 159.032 5.31818 159.362 5.10298C159.694 4.88565 160.082 4.77699 160.525 4.77699C160.781 4.77699 161.034 4.8196 161.283 4.90483C161.532 4.99006 161.759 5.12855 161.964 5.32031C162.168 5.50994 162.331 5.76136 162.453 6.07457C162.574 6.38778 162.635 6.77344 162.635 7.23153V7.55114H158.851V6.89915H161.868C161.868 6.62216 161.812 6.375 161.702 6.15767C161.593 5.94034 161.437 5.76882 161.235 5.64311C161.035 5.5174 160.798 5.45455 160.525 5.45455C160.225 5.45455 159.965 5.52912 159.746 5.67827C159.528 5.82528 159.361 6.01705 159.244 6.25355C159.127 6.49006 159.068 6.74361 159.068 7.0142V7.44886C159.068 7.8196 159.132 8.13388 159.26 8.39169C159.39 8.64737 159.57 8.84233 159.8 8.97656C160.03 9.10866 160.297 9.17472 160.602 9.17472C160.8 9.17472 160.979 9.14702 161.139 9.09162C161.301 9.03409 161.441 8.94886 161.558 8.83594C161.675 8.72088 161.765 8.57812 161.829 8.40767L162.558 8.61222C162.481 8.85938 162.352 9.0767 162.171 9.2642C161.99 9.44957 161.767 9.59446 161.5 9.69886C161.234 9.80114 160.934 9.85227 160.602 9.85227ZM165.917 4.84091V5.48011H163.373V4.84091H165.917ZM164.115 3.66477H164.869V8.34375C164.869 8.55682 164.9 8.71662 164.961 8.82315C165.025 8.92756 165.106 8.99787 165.204 9.03409C165.305 9.06818 165.41 9.08523 165.521 9.08523C165.604 9.08523 165.672 9.08097 165.725 9.07244C165.779 9.06179 165.821 9.05327 165.853 9.04688L166.007 9.72443C165.955 9.74361 165.884 9.76278 165.792 9.78196C165.701 9.80327 165.585 9.81392 165.444 9.81392C165.231 9.81392 165.022 9.76811 164.818 9.67649C164.615 9.58487 164.447 9.44531 164.313 9.25781C164.181 9.07031 164.115 8.83381 164.115 8.5483V3.66477ZM168.496 9.86506C168.185 9.86506 167.903 9.80646 167.649 9.68928C167.396 9.56996 167.194 9.39844 167.045 9.17472C166.896 8.94886 166.822 8.67614 166.822 8.35653C166.822 8.07528 166.877 7.8473 166.988 7.67259C167.099 7.49574 167.247 7.35724 167.432 7.2571C167.617 7.15696 167.822 7.08239 168.046 7.03338C168.271 6.98224 168.498 6.94176 168.726 6.91193C169.025 6.87358 169.267 6.84482 169.452 6.82564C169.639 6.80433 169.776 6.76918 169.861 6.72017C169.948 6.67116 169.992 6.58594 169.992 6.46449V6.43892C169.992 6.12358 169.906 5.87855 169.733 5.70384C169.563 5.52912 169.304 5.44176 168.956 5.44176C168.596 5.44176 168.314 5.5206 168.11 5.67827C167.905 5.83594 167.761 6.00426 167.678 6.18324L166.962 5.92756C167.09 5.62926 167.26 5.39702 167.474 5.23082C167.689 5.0625 167.923 4.94531 168.177 4.87926C168.432 4.81108 168.684 4.77699 168.931 4.77699C169.089 4.77699 169.27 4.79616 169.474 4.83452C169.681 4.87074 169.88 4.94638 170.072 5.06143C170.266 5.17649 170.427 5.35014 170.555 5.58239C170.682 5.81463 170.746 6.12571 170.746 6.51562V9.75H169.992V9.08523H169.954C169.903 9.19176 169.817 9.30575 169.698 9.4272C169.579 9.54865 169.42 9.65199 169.222 9.73722C169.024 9.82244 168.782 9.86506 168.496 9.86506ZM168.611 9.1875C168.91 9.1875 169.161 9.12891 169.366 9.01172C169.572 8.89453 169.728 8.74325 169.832 8.55788C169.939 8.37251 169.992 8.17756 169.992 7.97301V7.28267C169.96 7.32102 169.89 7.35618 169.781 7.38814C169.675 7.41797 169.551 7.4446 169.41 7.46804C169.272 7.48935 169.137 7.50852 169.004 7.52557C168.874 7.54048 168.769 7.55327 168.688 7.56392C168.492 7.58949 168.309 7.63104 168.138 7.68857C167.97 7.74396 167.834 7.82812 167.729 7.94105C167.627 8.05185 167.576 8.20312 167.576 8.39489C167.576 8.65696 167.673 8.85511 167.867 8.98935C168.063 9.12145 168.311 9.1875 168.611 9.1875Z" fill="#003D93"/>
</g>
<defs>
<clipPath id="clip0_9071_8687">
<rect width="186" height="28" fill="white"/>
</clipPath>
</defs>
</svg>
