<svg width="161" height="40" viewBox="0 0 161 40" fill="none" xmlns="http://www.w3.org/2000/svg">
<path fill-rule="evenodd" clip-rule="evenodd" d="M22.1149 0.873644C20.9497 -0.29154 19.0603 -0.29154 17.8965 0.873644L0.884783 17.8895C-0.280401 19.0547 -0.280401 20.9441 0.884783 22.1093L17.8951 39.1252C19.0603 40.2904 20.9497 40.2904 22.1135 39.1252L29.5106 31.7252L19.8975 22.1093C18.7323 20.9441 18.7323 19.0547 19.8975 17.8895L29.5106 8.27361L22.1149 0.873644Z" fill="#00A754"/>
<path fill-rule="evenodd" clip-rule="evenodd" d="M41.1276 0.873644C39.9624 -0.29154 38.073 -0.29154 36.9092 0.873644L29.512 8.27221L39.1251 17.8881C40.2903 19.0533 40.2903 20.9427 39.1251 22.1079L29.512 31.7238L36.9092 39.1238C38.0744 40.289 39.9638 40.289 41.1276 39.1238L58.1379 22.1079C59.3031 20.9427 59.3031 19.0533 58.1379 17.8881L41.1276 0.873644Z" fill="#0A6E5C"/>
<path d="M129.963 37.9097L127.971 34.4811L126.574 36.2798V37.9097H125.347V30.165H126.574V34.4699L129.892 30.165H131.324L128.769 33.4541L131.38 37.9097H129.963Z" fill="white"/>
<path d="M121.31 37.9097L119.971 34.9583H118.143V37.9097H116.918V30.165H119.855C120.724 30.165 121.409 30.3771 121.889 30.7944C122.374 31.2088 122.619 31.8005 122.619 32.5512C122.619 33.0592 122.501 33.5001 122.265 33.8587C122.036 34.2118 121.691 34.4853 121.241 34.6723L121.164 34.7044L122.65 37.9097H121.31ZM118.141 33.895H119.854C120.311 33.895 120.675 33.775 120.934 33.5392C121.195 33.302 121.327 32.9685 121.327 32.5512C121.327 32.134 121.195 31.8061 120.932 31.5828C120.674 31.3553 120.311 31.2395 119.854 31.2395H118.141V33.895Z" fill="white"/>
<path d="M110.511 38.0395C109.78 38.0395 109.124 37.8693 108.563 37.5316C108.002 37.1953 107.557 36.7222 107.24 36.125C106.932 35.5277 106.774 34.8272 106.774 34.043C106.774 33.2588 106.935 32.5485 107.251 31.9499C107.568 31.3442 108.011 30.8684 108.563 30.5321C109.124 30.1958 109.783 30.0242 110.522 30.0242C111.262 30.0242 111.916 30.1944 112.47 30.5321C113.031 30.8684 113.476 31.3415 113.793 31.9387C114.11 32.5373 114.27 33.2406 114.27 34.0318C114.27 34.8231 114.11 35.5194 113.793 36.125C113.476 36.7222 113.031 37.1953 112.47 37.5316C111.909 37.8679 111.251 38.0395 110.511 38.0395ZM110.522 31.1949C110.026 31.1949 109.586 31.3163 109.215 31.5536C108.851 31.7838 108.565 32.1145 108.364 32.5373C108.165 32.9588 108.064 33.4611 108.064 34.0304C108.064 34.5998 108.164 35.1063 108.362 35.5347C108.563 35.9575 108.849 36.2896 109.213 36.5199C109.585 36.7501 110.026 36.8674 110.521 36.8674C111.016 36.8674 111.464 36.7501 111.828 36.5199C112.193 36.2813 112.479 35.9464 112.68 35.525C112.878 35.098 112.978 34.5956 112.978 34.0318C112.978 33.4681 112.878 32.9588 112.68 32.5387C112.479 32.1159 112.193 31.7852 111.828 31.555C111.466 31.3177 111.025 31.1963 110.521 31.1963L110.522 31.1949Z" fill="white"/>
<path d="M101.534 37.9096L99.7887 31.9595L97.9997 37.9096H96.7662L94.4567 30.165H95.7294L96.9671 34.2815C97.0313 34.495 97.0927 34.7266 97.1499 34.968C97.2071 35.2011 97.2643 35.4941 97.3216 35.8388H97.4778C97.542 35.4885 97.6034 35.1955 97.6607 34.9694C97.7248 34.7336 97.789 34.5034 97.8546 34.2801L99.091 30.1636H100.498L101.702 34.2801C101.769 34.5117 101.83 34.7476 101.885 34.9778C101.949 35.222 102.014 35.5123 102.079 35.8402H102.233C102.303 35.483 102.369 35.1815 102.426 34.9471C102.49 34.7113 102.552 34.4964 102.609 34.301L103.868 30.1636H105.108L102.755 37.9082H101.533L101.534 37.9096Z" fill="white"/>
<path d="M89.0927 37.9097V31.2814H86.7791V30.165H92.6315V31.2814H90.3179V37.9097H89.0927Z" fill="white"/>
<path d="M79.8829 37.9097V30.165H84.6329V31.2814H81.1081V33.4736H84.2659V34.5369H81.1081V36.7919H84.6329V37.9097H79.8829Z" fill="white"/>
<path d="M75.5459 37.9097L71.7043 32.1228V37.9097H70.5V30.165H71.7517L75.5822 35.9603V30.165H76.7864V37.9097H75.5459Z" fill="white"/>
<path d="M83.4091 24.1438L78.6549 16.0783H74.6709V24.1438H70.5V1.96069H80.3238C84.5743 1.96069 87.781 5.05017 87.781 9.14855C87.781 12.2129 85.8693 14.7833 82.9124 15.6959L82.71 15.7587L88.2931 24.1452H83.4105L83.4091 24.1438ZM74.6598 12.4808H80.2206C82.0765 12.4808 83.4761 11.0561 83.4761 9.16809C83.4761 7.28007 82.0765 5.85534 80.2206 5.85534H74.6598V12.4794V12.4808Z" fill="white"/>
<path d="M97.8909 24.5456C93.3585 24.5456 89.9397 20.8812 89.9397 16.0223C89.9397 11.1634 93.3585 7.50879 97.8909 7.50879C99.984 7.50879 101.812 8.30139 103.177 9.80009L103.452 10.1029V7.9009H107.364V24.1563H103.452V21.9557L103.177 22.2557C101.802 23.7544 99.9743 24.547 97.8909 24.547V24.5456ZM98.703 11.2806C96.014 11.2806 93.9865 13.318 93.9865 16.0209C93.9865 18.7239 96.014 20.7612 98.703 20.7612C101.392 20.7612 103.452 18.7239 103.452 16.0209C103.452 13.318 101.41 11.2806 98.703 11.2806Z" fill="white"/>
<path d="M134.035 24.1437V14.7776C134.035 12.6468 132.697 11.2695 130.625 11.2695C128.444 11.2695 126.977 12.704 126.977 14.839V24.1325H123.064V14.7664C123.064 12.6677 121.694 11.2583 119.654 11.2583C117.488 11.2583 115.977 12.7263 115.977 14.8278V24.1214H112.063V7.88835H115.987V9.87405L116.263 9.56147C117.473 8.19255 119.089 7.49902 121.063 7.49902C123.328 7.49902 125.199 8.51071 126.194 10.2745L126.317 10.4936L126.461 10.2885C127.739 8.46466 129.662 7.50042 132.022 7.50042C135.621 7.50042 137.945 9.86149 137.945 13.5175V24.1465H134.033L134.035 24.1437Z" fill="white"/>
<path d="M142.144 30.3184V7.88828H146.057V10.0889L146.332 9.78885C147.706 8.29016 149.534 7.49756 151.618 7.49756C156.128 7.49756 159.527 11.1578 159.527 16.0111C159.527 20.8644 156.126 24.5344 151.618 24.5344C149.525 24.5344 147.697 23.7418 146.332 22.2431L146.057 21.9403V30.317H142.144V30.3184ZM150.764 11.2806C148.075 11.2806 146.046 13.3179 146.046 16.0208C146.046 18.7238 148.073 20.7611 150.764 20.7611C153.454 20.7611 155.48 18.7238 155.48 16.0208C155.48 13.3179 153.453 11.2806 150.764 11.2806Z" fill="white"/>
</svg>
